<svg width="111.743" height="98.369" viewBox="0 0 29.565 26.027" xml:space="preserve" xmlns:xlink="http://www.w3.org/1999/xlink" xmlns="http://www.w3.org/2000/svg"><defs><linearGradient gradientUnits="userSpaceOnUse" id="a" x1=".97" x2="13.72" y1="18.39" y2="28.14"><stop offset="0" stop-color="#fdebaf"/><stop offset="1" stop-color="#f4946d"/></linearGradient><linearGradient id="f" x1="29.22" x2="24.01" xlink:href="#a" y1="31.14" y2="21.72"/><linearGradient id="g" x1="16" x2="16" xlink:href="#a" y1="28.53" y2="20.65"/><linearGradient gradientUnits="userSpaceOnUse" id="b" x1="12.97" x2="18.55" y1=".19" y2="25.81"><stop offset="0" stop-color="#fb9b90"/><stop offset="1" stop-color="#df254d"/></linearGradient><linearGradient id="i" x1="4.62" x2="9.33" xlink:href="#a" y1="1.75" y2="14.12"/><linearGradient id="j" x1="18.84" x2="23.55" xlink:href="#a" y1="-3.66" y2="8.71"/><linearGradient id="k" x1="17.96" x2="17.35" xlink:href="#a" y1="29.62" y2="23.33"/><linearGradient id="l" x1="12.74" x2="17.36" xlink:href="#b" y1="-.84" y2="20.37"/><linearGradient xlink:href="#a" id="e" gradientUnits="userSpaceOnUse" x1=".97" y1="18.39" x2="13.72" y2="28.14"/><linearGradient xlink:href="#b" id="h" gradientUnits="userSpaceOnUse" x1="12.97" y1=".19" x2="18.55" y2="25.81"/><radialGradient fx="0" fy="0" cx="0" cy="0" r="1" gradientUnits="userSpaceOnUse" gradientTransform="scale(-859.87 859.87) rotate(-31.391 2.236 14.817)" spreadMethod="pad" id="d"><stop style="stop-color:#8642bb;stop-opacity:1" offset="0"/><stop style="stop-color:#8642bb;stop-opacity:1" offset=".501"/><stop style="stop-color:#7873ff;stop-opacity:1" offset="1"/></radialGradient><clipPath clipPathUnits="userSpaceOnUse" id="c"><path d="M6258.14 2896.45c-15.31 19.98-32.24 38.85-50.53 56.22-79.77 75.77-181.15 148.83-295.17 152.94-98.78 3.57-169.46-56.47-213.48-140.18-30-57.07-31.71-122.48-54.53-181.85-27.78-72.3-97.46-120.16-124.85-191.81-32.71-85.52 25.46-175.48 113.47-196.2 52.97-12.51 112.79.8 165.8 5.54 48.45 4.29 94.2 1.22 141.09-11.78 93.12-25.86 190.22-37.23 274.91 19.16 182.36 121.41 159.09 336.83 43.29 487.96z"/></clipPath></defs><g clip-path="url(#c)" transform="matrix(.03528 0 0 -.03528 -194.393 109.564)"><path d="M6258.14 2896.45c-15.31 19.98-32.24 38.85-50.53 56.22-79.77 75.77-181.15 148.83-295.17 152.94-98.78 3.57-169.46-56.47-213.48-140.18-30-57.07-31.71-122.48-54.53-181.85-27.78-72.3-97.46-120.16-124.85-191.81-32.71-85.52 25.46-175.48 113.47-196.2 52.97-12.51 112.79.8 165.8 5.54 48.45 4.29 94.2 1.22 141.09-11.78 93.12-25.86 190.22-37.23 274.91 19.16 182.36 121.41 159.09 336.83 43.29 487.96" style="fill:url(#d);fill-opacity:1;fill-rule:nonzero;stroke:none"/></g><g transform="translate(7.001 4.91) scale(.53612)"><path d="M10.5 31A4.51 4.51 0 0 1 6 26.5v-7A2.5 2.5 0 0 0 3.5 17H2a1 1 0 0 1 0-2h1.5A4.51 4.51 0 0 1 8 19.5v7a2.5 2.5 0 0 0 5 0V25a1 1 0 0 1 2 0v1.5a4.51 4.51 0 0 1-4.5 4.5Z" style="fill:url(#e)"/><path d="M21.5 31a4.51 4.51 0 0 1-4.5-4.5V25a1 1 0 0 1 2 0v1.5a2.5 2.5 0 0 0 5 0v-7a4.51 4.51 0 0 1 4.5-4.5H30a1 1 0 0 1 0 2h-1.5a2.5 2.5 0 0 0-2.5 2.5v7a4.51 4.51 0 0 1-4.5 4.5Z" style="fill:url(#f)"/><rect height="6" rx="1" ry="1" width="6" x="13" y="20" style="fill:url(#g)"/><path d="M22 9v10a3 3 0 0 1-3 3h-6a3 3 0 0 1-3-3V9a.94.94 0 0 1 .19-.58l5-7a1 1 0 0 1 1.62 0l1.94 2.72 3.06 4.28A.94.94 0 0 1 22 9Z" style="fill:url(#h)"/><circle cx="7" cy="8" r="1" style="fill:url(#i)"/><circle cx="21" cy="2" r="1" style="fill:url(#j)"/><circle cx="16" cy="17" r="1" style="fill:#fcf9f4"/><path d="M19 21v4a1 1 0 0 1-1 1h-2.27c1.95-1.6 2-4.11 1.73-6H18a1 1 0 0 1 1 1z" style="fill:url(#k)"/><path d="M22 9v10a3 3 0 0 1-3 3h-6a3 3 0 0 1-3-3v-3a9.39 9.39 0 0 1 2.71 1.72c3.12 2.68 5.83 2.74 7.29-3.43.81-3.4-.19-7.3-1.25-10.11l3.06 4.28A.94.94 0 0 1 22 9Z" style="fill:url(#l)"/></g></svg>