<svg xmlns="http://www.w3.org/2000/svg" xmlns:xlink="http://www.w3.org/1999/xlink" xml:space="preserve" width="256" height="256"><defs><linearGradient id="a" x1=".97" x2="13.72" y1="18.39" y2="28.14" gradientUnits="userSpaceOnUse"><stop offset="0" stop-color="#fdebaf"/><stop offset="1" stop-color="#f4946d"/></linearGradient><linearGradient xlink:href="#a" id="d" x1="29.22" x2="24.01" y1="31.14" y2="21.72"/><linearGradient xlink:href="#a" id="e" x1="16" x2="16" y1="28.53" y2="20.65"/><linearGradient id="b" x1="12.97" x2="18.55" y1=".19" y2="25.81" gradientUnits="userSpaceOnUse"><stop offset="0" stop-color="#fb9b90"/><stop offset="1" stop-color="#df254d"/></linearGradient><linearGradient xlink:href="#a" id="g" x1="4.62" x2="9.33" y1="1.75" y2="14.12"/><linearGradient xlink:href="#a" id="h" x1="18.84" x2="23.55" y1="-3.66" y2="8.71"/><linearGradient xlink:href="#a" id="i" x1="17.96" x2="17.35" y1="29.62" y2="23.33"/><linearGradient xlink:href="#b" id="j" x1="12.74" x2="17.36" y1="-.84" y2="20.37"/><linearGradient xlink:href="#a" id="c" x1=".97" x2="13.72" y1="18.39" y2="28.14" gradientUnits="userSpaceOnUse"/><linearGradient xlink:href="#b" id="f" x1="12.97" x2="18.55" y1=".19" y2="25.81" gradientUnits="userSpaceOnUse"/></defs><circle cx="128" cy="128" r="128" style="fill:#6d42bb;fill-opacity:1;stroke-width:1.16867"/><g transform="matrix(6.5423 0 0 6.44744 23.323 24.841)"><path d="M10.5 31A4.51 4.51 0 0 1 6 26.5v-7A2.5 2.5 0 0 0 3.5 17H2a1 1 0 0 1 0-2h1.5A4.51 4.51 0 0 1 8 19.5v7a2.5 2.5 0 0 0 5 0V25a1 1 0 0 1 2 0v1.5a4.51 4.51 0 0 1-4.5 4.5Z" style="fill:url(#c)"/><path d="M21.5 31a4.51 4.51 0 0 1-4.5-4.5V25a1 1 0 0 1 2 0v1.5a2.5 2.5 0 0 0 5 0v-7a4.51 4.51 0 0 1 4.5-4.5H30a1 1 0 0 1 0 2h-1.5a2.5 2.5 0 0 0-2.5 2.5v7a4.51 4.51 0 0 1-4.5 4.5Z" style="fill:url(#d)"/><rect width="6" height="6" x="13" y="20" rx="1" ry="1" style="fill:url(#e)"/><path d="M22 9v10a3 3 0 0 1-3 3h-6a3 3 0 0 1-3-3V9a.94.94 0 0 1 .19-.58l5-7a1 1 0 0 1 1.62 0l1.94 2.72 3.06 4.28A.94.94 0 0 1 22 9Z" style="fill:url(#f)"/><circle cx="7" cy="8" r="1" style="fill:url(#g)"/><circle cx="21" cy="2" r="1" style="fill:url(#h)"/><circle cx="16" cy="17" r="1" style="fill:#fcf9f4"/><path d="M19 21v4a1 1 0 0 1-1 1h-2.27c1.95-1.6 2-4.11 1.73-6H18a1 1 0 0 1 1 1z" style="fill:url(#i)"/><path d="M22 9v10a3 3 0 0 1-3 3h-6a3 3 0 0 1-3-3v-3a9.39 9.39 0 0 1 2.71 1.72c3.12 2.68 5.83 2.74 7.29-3.43.81-3.4-.19-7.3-1.25-10.11l3.06 4.28A.94.94 0 0 1 22 9Z" style="fill:url(#j)"/></g></svg>